<svg t="1675818581147" class="icon" viewBox="0 0 1024 1024" version="1.1" xmlns="http://www.w3.org/2000/svg" p-id="843" width="200" height="200"><style>path{fill:black}@media(prefers-color-scheme:dark){path{fill:white}}</style><path d="M832 128A106.752 106.752 0 0 0 725.333333 234.666667c0 15.232 3.328 29.696 9.130667 42.88l-83.413333 93.824A169.685333 169.685333 0 0 0 554.666667 341.333333c-31.573333 0-60.757333 9.216-86.144 24.149334L371.498667 268.501333l-0.981334 0.981334C378.88 252.501333 384 233.6 384 213.333333a128 128 0 1 0-128 128c20.266667 0 39.125333-5.12 56.149333-13.482666l-0.981333 0.981333L408.192 425.813333A168.789333 168.789333 0 0 0 384 512c0 42.538667 16.213333 81.024 42.026667 110.976l-109.952 109.909333A105.472 105.472 0 0 0 277.333333 725.333333C218.538667 725.333333 170.666667 773.162667 170.666667 832S218.538667 938.666667 277.333333 938.666667 384 890.837333 384 832c0-13.696-2.816-26.709333-7.552-38.784l121.088-121.088c17.962667 6.4 36.992 10.538667 57.130667 10.538667 94.122667 0 170.666667-76.544 170.666666-170.666667 0-27.136-6.954667-52.437333-18.261333-75.264l90.325333-101.674667c10.922667 3.754667 22.442667 6.272 34.602667 6.272C890.837333 341.333333 938.666667 293.504 938.666667 234.666667S890.837333 128 832 128zM554.666667 597.333333c-47.061333 0-85.333333-38.272-85.333334-85.333333s38.272-85.333333 85.333334-85.333333 85.333333 38.272 85.333333 85.333333-38.272 85.333333-85.333333 85.333333z" p-id="844"></path></svg>
